<?xml version="1.0" standalone="no"?>
<!DOCTYPE svg PUBLIC "-//W3C//DTD SVG 20010904//EN"
 "http://www.w3.org/TR/2001/REC-SVG-20010904/DTD/svg10.dtd">
<svg version="1.0" xmlns="http://www.w3.org/2000/svg"
 width="800.000000pt" height="800.000000pt" viewBox="0 0 800.000000 800.000000"
 preserveAspectRatio="xMidYMid meet">
<metadata>
Created by potrace 1.11, written by Peter Selinger 2001-2013
</metadata>
<g transform="translate(0.000000,800.000000) scale(0.100000,-0.100000)"
fill="#000000" stroke="none">
<path d="M3760 7844 c-723 -58 -1351 -272 -1920 -655 -469 -315 -852 -721
-1156 -1221 -101 -167 -113 -163 125 -43 l210 105 400 100 401 100 364 0 364
0 209 -36 c163 -28 251 -37 408 -44 180 -7 218 -12 380 -48 194 -43 348 -72
513 -97 l103 -15 172 -119 c95 -65 285 -196 422 -292 385 -269 404 -279 670
-382 l170 -65 290 -17 c373 -21 572 -21 699 0 91 14 110 14 225 0 247 -32 310
-56 421 -165 62 -60 68 -71 89 -145 37 -131 50 -162 108 -243 170 -237 207
-305 207 -383 -1 -72 -53 -186 -116 -255 -37 -41 -411 -327 -609 -467 l-67
-47 -193 -29 c-350 -54 -552 -80 -689 -90 -333 -25 -313 -25 -640 19 l-304 42
-117 109 -117 110 -124 -57 c-67 -31 -125 -59 -128 -61 -2 -2 40 -45 93 -96
l97 -92 41 -197 40 -196 -131 -234 c-122 -215 -139 -240 -224 -328 -203 -209
-456 -491 -774 -862 -151 -176 -153 -178 -193 -178 -22 0 -49 -5 -60 -11 -11
-5 -106 -77 -212 -158 -234 -180 -387 -292 -532 -393 l-111 -76 -102 5 c-96 6
-106 4 -169 -22 -64 -28 -65 -29 -45 -45 27 -22 298 -138 442 -190 235 -84
487 -147 764 -192 107 -16 193 -21 464 -25 359 -5 465 1 712 43 653 110 1254
381 1782 805 136 109 471 446 581 584 282 353 511 776 652 1200 79 240 149
566 174 814 14 129 14 654 1 781 -77 740 -366 1440 -841 2032 -109 136 -446
471 -584 581 -353 282 -774 510 -1200 652 -253 84 -596 155 -834 175 -129 10
-531 19 -601 14z m1810 -1914 c41 -18 255 -121 475 -230 l400 -197 48 -77 47
-76 -17 -77 c-18 -75 -19 -77 -53 -85 -63 -15 -738 -14 -810 0 -101 20 -187
49 -286 97 -152 74 -174 123 -109 243 l36 64 -6 112 c-3 61 -8 136 -11 168
l-5 56 48 15 c105 34 140 32 243 -13z"/>
<path d="M1991 6070 l-73 -80 102 -305 c56 -168 105 -307 109 -309 12 -8 544
-116 565 -115 14 0 83 70 211 215 105 119 191 221 192 227 1 7 -26 93 -60 192
l-62 179 -225 38 c-214 36 -236 37 -456 38 l-231 0 -72 -80z"/>
<path d="M1243 5996 c-118 -31 -122 -33 -166 -81 -189 -212 -257 -291 -256
-300 0 -5 46 -145 102 -310 l102 -300 280 -57 c154 -32 285 -57 292 -58 16 0
394 427 395 448 1 9 -43 150 -97 313 l-99 296 -200 42 c-111 22 -208 41 -216
40 -8 0 -70 -15 -137 -33z"/>
<path d="M4040 5713 c-77 -86 -140 -161 -139 -167 0 -6 46 -146 102 -311 l102
-299 255 -52 c140 -29 271 -55 291 -58 l37 -6 193 217 193 216 -24 16 c-14 9
-157 108 -320 221 -162 113 -352 245 -422 293 l-127 87 -141 -157z"/>
<path d="M3004 5418 c-104 -116 -193 -218 -197 -225 -10 -16 177 -588 200
-613 8 -9 122 -36 294 -71 260 -52 281 -55 298 -40 18 16 303 337 353 398 l26
33 -100 302 c-55 167 -102 305 -104 307 -2 2 -569 121 -580 121 -1 0 -87 -95
-190 -212z"/>
<path d="M401 5388 c-41 -97 -132 -393 -129 -422 3 -30 5 -31 58 -34 67 -4
251 16 264 28 6 6 -24 77 -72 177 -69 142 -82 176 -82 218 0 77 -15 89 -39 33z"/>
<path d="M4054 4806 c-45 -41 -374 -420 -373 -431 0 -5 46 -145 102 -310 l102
-299 280 -58 c154 -31 285 -57 291 -58 20 0 394 429 394 453 0 15 -182 583
-194 604 -1 1 -100 22 -221 47 -121 24 -251 51 -289 59 -66 14 -69 13 -92 -7z"/>
<path d="M6331 4122 c-47 -10 -86 -21 -88 -27 -1 -5 12 -35 30 -65 26 -44 51
-67 127 -118 l94 -64 60 7 c72 9 112 27 121 55 8 25 -39 130 -78 176 -28 33
-89 55 -149 53 -18 0 -71 -8 -117 -17z"/>
<path d="M845 3850 c-669 -293 -665 -291 -670 -314 -8 -30 39 -295 85 -476
136 -538 384 -1038 729 -1470 74 -92 278 -320 286 -320 7 0 32 62 71 175 l35
100 112 113 c146 148 260 239 497 399 107 72 203 139 212 149 9 11 22 48 28
84 6 36 17 71 23 79 19 22 229 189 517 411 379 291 492 382 483 390 -4 4 -111
37 -238 75 -703 208 -1360 469 -1696 674 -64 39 -125 71 -135 71 -11 0 -163
-63 -339 -140z"/>
</g>
</svg>
