<?xml version="1.0" standalone="no"?>
<!DOCTYPE svg PUBLIC "-//W3C//DTD SVG 20010904//EN"
 "http://www.w3.org/TR/2001/REC-SVG-20010904/DTD/svg10.dtd">
<svg version="1.0" xmlns="http://www.w3.org/2000/svg"
 width="800.000000pt" height="800.000000pt" viewBox="0 0 800.000000 800.000000"
 preserveAspectRatio="xMidYMid meet">
<metadata>
Created by potrace 1.11, written by Peter Selinger 2001-2013
</metadata>
<g transform="translate(0.000000,800.000000) scale(0.100000,-0.100000)"
fill="#000000" stroke="none">
<path d="M3755 7844 c-22 -2 -92 -9 -155 -15 -628 -59 -1282 -301 -1815 -674
-355 -247 -703 -595 -948 -947 -73 -105 -182 -279 -216 -346 l-22 -42 210 105
210 105 400 100 401 100 372 0 373 0 225 -40 c200 -35 243 -40 387 -40 159 0
165 -1 371 -50 116 -27 301 -63 411 -80 l201 -30 283 -192 c155 -105 302 -208
327 -228 25 -20 127 -92 227 -158 177 -118 188 -124 391 -201 l209 -80 184
-10 c576 -33 647 -34 777 -11 l122 20 162 -19 c201 -24 257 -43 347 -121 107
-93 110 -97 142 -225 30 -116 31 -118 118 -233 92 -122 160 -234 181 -296 20
-62 4 -134 -52 -230 -48 -83 -54 -89 -221 -219 -95 -73 -249 -188 -344 -255
l-172 -122 -388 -59 c-329 -51 -422 -61 -613 -70 l-225 -11 -299 41 -299 40
-118 110 -117 109 -124 -56 c-67 -31 -125 -58 -128 -61 -3 -3 39 -46 93 -96
l97 -92 41 -197 40 -197 -132 -233 -132 -233 -206 -215 c-114 -118 -343 -374
-509 -567 l-302 -353 -50 0 c-50 0 -51 -1 -288 -188 -130 -104 -324 -248 -430
-321 l-193 -132 -89 10 c-88 11 -90 11 -167 -20 -43 -17 -80 -33 -82 -35 -7
-7 223 -112 367 -168 326 -127 659 -208 1017 -248 157 -17 613 -17 770 0 905
100 1704 480 2335 1112 312 312 549 644 740 1035 198 405 320 835 372 1300 17
157 17 613 0 770 -100 905 -480 1704 -1112 2335 -312 312 -644 549 -1035 740
-394 192 -801 311 -1250 366 -122 14 -579 27 -670 18z m2207 -2100 c255 -124
468 -230 474 -235 6 -5 32 -43 57 -84 l46 -75 -16 -79 c-17 -79 -17 -79 -53
-85 -19 -3 -161 -9 -315 -12 -445 -11 -579 8 -790 114 -106 52 -121 66 -134
117 -11 44 -10 48 29 116 l41 70 -11 166 c-6 91 -9 168 -7 170 14 14 121 42
164 42 48 1 87 -16 515 -225z"/>
<path d="M376 5325 c-56 -152 -119 -364 -112 -381 7 -18 63 -25 134 -14 105
15 145 19 176 20 26 0 28 2 22 31 -3 17 -40 93 -81 169 -65 120 -75 145 -76
192 -3 126 -11 124 -63 -17z"/>
<path d="M6390 4134 c-48 -8 -145 -27 -152 -31 -4 -2 11 -33 32 -70 34 -60 48
-72 131 -125 l93 -58 70 6 c128 12 144 55 66 184 -34 56 -48 70 -83 84 -40 15
-97 18 -157 10z"/>
<path d="M1141 3979 c-24 -10 -57 -26 -75 -33 -99 -45 -156 -70 -196 -86 -40
-16 -77 -32 -195 -85 -68 -31 -452 -198 -477 -208 -35 -14 -35 -24 -3 -209
129 -750 464 -1427 978 -1982 54 -58 102 -106 105 -106 4 0 29 62 56 138 l48
137 147 148 c152 154 194 186 527 408 180 119 160 94 180 229 6 39 14 47 292
264 158 122 390 300 515 396 125 95 224 176 220 180 -4 4 -109 36 -233 70
-299 83 -696 220 -1070 370 -307 123 -527 230 -678 332 -39 27 -78 50 -85 53
-6 2 -32 -5 -56 -16z"/>
</g>
</svg>
